# xmcd
#
# Track frame offsets: 
#        150
#        38709
#        83242
#        108008
#        143165
#
# Disc length: 2192 seconds
#
# Revision: 2
# Processed by: cddbd v1.5.2PL0 Copyright (c) Steve Scherf et al.
# Submitted via: ExactAudioCopy v0.99pb4
#
DISCID=34088e05
DTITLE=Herbie Mann - Returns To The Village Gate
DYEAR=1961
DGENRE=Jazz
TTITLE0=Bag's Groove
TTITLE1=New York Is A Jungle Festival
TTITLE2=Candle Dance
TTITLE3=Bedouin
TTITLE4=Ekunda
EXTD=YEAR: 1966
EXTT0=
EXTT1=
EXTT2=
EXTT3=
EXTT4=
PLAYORDER=
